<svg width="33" height="32" viewBox="0 0 33 32" fill="none" xmlns="http://www.w3.org/2000/svg">
<path d="M10.9 2.66667H22.1C26.3667 2.66667 29.8334 6.13334 29.8334 10.4V21.6C29.8334 23.651 29.0186 25.618 27.5683 27.0683C26.118 28.5186 24.151 29.3333 22.1 29.3333H10.9C6.63335 29.3333 3.16669 25.8667 3.16669 21.6V10.4C3.16669 8.349 3.98145 6.38199 5.43173 4.93171C6.88201 3.48143 8.84901 2.66667 10.9 2.66667ZM10.6334 5.33334C9.36031 5.33334 8.13942 5.83905 7.23924 6.73923C6.33907 7.6394 5.83335 8.8603 5.83335 10.1333V21.8667C5.83335 24.52 7.98002 26.6667 10.6334 26.6667H22.3667C23.6397 26.6667 24.8606 26.161 25.7608 25.2608C26.661 24.3606 27.1667 23.1397 27.1667 21.8667V10.1333C27.1667 7.48001 25.02 5.33334 22.3667 5.33334H10.6334ZM23.5 7.33334C23.942 7.33334 24.366 7.50893 24.6785 7.82149C24.9911 8.13405 25.1667 8.55798 25.1667 9.00001C25.1667 9.44203 24.9911 9.86596 24.6785 10.1785C24.366 10.4911 23.942 10.6667 23.5 10.6667C23.058 10.6667 22.6341 10.4911 22.3215 10.1785C22.0089 9.86596 21.8334 9.44203 21.8334 9.00001C21.8334 8.55798 22.0089 8.13405 22.3215 7.82149C22.6341 7.50893 23.058 7.33334 23.5 7.33334ZM16.5 9.33334C18.2681 9.33334 19.9638 10.0357 21.2141 11.286C22.4643 12.5362 23.1667 14.2319 23.1667 16C23.1667 17.7681 22.4643 19.4638 21.2141 20.7141C19.9638 21.9643 18.2681 22.6667 16.5 22.6667C14.7319 22.6667 13.0362 21.9643 11.786 20.7141C10.5357 19.4638 9.83335 17.7681 9.83335 16C9.83335 14.2319 10.5357 12.5362 11.786 11.286C13.0362 10.0357 14.7319 9.33334 16.5 9.33334ZM16.5 12C15.4392 12 14.4217 12.4214 13.6716 13.1716C12.9214 13.9217 12.5 14.9391 12.5 16C12.5 17.0609 12.9214 18.0783 13.6716 18.8284C14.4217 19.5786 15.4392 20 16.5 20C17.5609 20 18.5783 19.5786 19.3284 18.8284C20.0786 18.0783 20.5 17.0609 20.5 16C20.5 14.9391 20.0786 13.9217 19.3284 13.1716C18.5783 12.4214 17.5609 12 16.5 12Z" fill="#E971F4"/>
</svg>
